# xmcd
#
# Track frame offsets:
#	183
#	13430
#	27138
#	37013
#	48173
#	60475
#	70558
#	94465
#	103270
#	116828
#	128260
#	139323
#	149203
#	162070
#	176875
#
# Disc length: 2471 seconds
#
# Revision: 0
# Processed by: cddbd v1.4PL0 Copyright (c) Steve Scherf et al.
# Submitted via: AudioConverter v4.1 Copyright (c) Dennis Rebentrost
#
DISCID=dc09a50f
DTITLE=Copeland, Johnny - The Copeland Collection Vol 1
DYEAR=1991
DGENRE=Blues
TTITLE0=Down On Bending Knees
TTITLE1=Just One More Time
TTITLE2=Late Hours
TTITLE3=Please Let Me Know
TTITLE4=Workin' Man's Blues
TTITLE5=Wella Wella Baby
TTITLE6=(The Night TIme Is) The Right TIme
TTITLE7=That's All Right Mama
TTITLE8=That's All Right Mama
TTITLE9=Your Game Is Working On Me
TTITLE10=Ther's A Blessing
TTITLE11=It Must Be Love
TTITLE12=I've Gotta Go Home
TTITLE13=I Need You Now
TTITLE14=I Feel Like I Wanta Cry
EXTD=
EXTT0=
EXTT1=
EXTT2=
EXTT3=
EXTT4=
EXTT5=
EXTT6=
EXTT7=
EXTT8=
EXTT9=
EXTT10=
EXTT11=
EXTT12=
EXTT13=
EXTT14=
PLAYORDER=
